HIERARCHY
ROOT Hips
{
	OFFSET 0.000000 0.000000 0.000000 
	CHANNELS 6 Xposition Yposition Zposition Zrotation Yrotation Xrotation
	JOINT LeftUpLeg
	{
		OFFSET 1.363060 -1.794630 0.839290 
		CHANNELS 3 Zrotation Yrotation Xrotation
		JOINT LeftLeg
		{
			OFFSET 2.448110 -6.726130 0.000000 
			CHANNELS 3 Zrotation Yrotation Xrotation
			JOINT LeftFoot
			{
				OFFSET 2.562200 -7.039590 0.000000 
				CHANNELS 3 Zrotation Yrotation Xrotation
				JOINT LeftToeBase
				{
					OFFSET 0.157640 -0.433110 2.322550 
					CHANNELS 3 Zrotation Yrotation Xrotation
					End Site
					{
						OFFSET 0.000000 0.000000 0.000000 
					}
				}
			}
		}
	}
	JOINT RightUpLeg
	{
		OFFSET -1.305520 -1.794630 0.839290 
		CHANNELS 3 Zrotation Yrotation Xrotation
		JOINT RightLeg
		{
			OFFSET -2.542530 -6.985550 0.000000 
			CHANNELS 3 Zrotation Yrotation Xrotation
			JOINT RightFoot
			{
				OFFSET -2.568260 -7.056230 0.000000 
				CHANNELS 3 Zrotation Yrotation Xrotation
				JOINT RightToeBase
				{
					OFFSET -0.164730 -0.452590 2.363150 
					CHANNELS 3 Zrotation Yrotation Xrotation
					End Site
					{
						OFFSET 0.000000 0.000000 0.000000 
					}
				}
			}
		}
	}
	JOINT Spine
	{
		OFFSET 0.028270 2.035590 -0.193380 
		CHANNELS 3 Zrotation Yrotation Xrotation
		JOINT Spine1
		{
			OFFSET 0.056720 2.048850 -0.042750 
			CHANNELS 3 Zrotation Yrotation Xrotation
			JOINT Neck1
			{
				OFFSET -0.054170 1.746240 0.172020 
				CHANNELS 3 Zrotation Yrotation Xrotation
				JOINT Head
				{
					OFFSET 0.104070 1.761360 -0.123970 
					CHANNELS 3 Zrotation Yrotation Xrotation
					End Site
					{
						OFFSET 0.000000 0.000000 0.000000 
					}
				}
			}
			JOINT LeftArm
			{
				OFFSET 3.362410 1.200890 -0.311210 
				CHANNELS 3 Zrotation Yrotation Xrotation
				JOINT LeftForeArm
				{
					OFFSET 4.983000 -0.000000 -0.000000 
					CHANNELS 3 Zrotation Yrotation Xrotation
					JOINT LeftHand
					{
						OFFSET 3.483560 -0.000000 -0.000000 
						CHANNELS 3 Zrotation Yrotation Xrotation
						JOINT LeftHandIndex1
						{
							OFFSET 0.715260 -0.000000 -0.000000 
							CHANNELS 3 Zrotation Yrotation Xrotation
							End Site
							{
								OFFSET 0.000000 0.000000 0.000000 
							}
						}
					}
				}
			}
			JOINT RightArm
			{
				OFFSET -3.136600 1.374050 -0.404650 
				CHANNELS 3 Zrotation Yrotation Xrotation
				JOINT RightForeArm
				{
					OFFSET -5.241900 -0.000000 -0.000000 
					CHANNELS 3 Zrotation Yrotation Xrotation
					JOINT RightHand
					{
						OFFSET -3.444170 -0.000000 -0.000000 
						CHANNELS 3 Zrotation Yrotation Xrotation
						JOINT RightHandIndex1
						{
							OFFSET -0.622530 -0.000000 -0.000000 
							CHANNELS 3 Zrotation Yrotation Xrotation
							End Site
							{
								OFFSET 0.000000 0.000000 0.000000 
							}
						}
					}
				}
			}
		}
	}
}
MOTION
Frames: 17
Frame Time: 0.041667
0.967142 18.357265 9.641814 -10.375173 2.664675 15.643305 -20.836333 -49.472683 23.008019 -3.832676 -2.386631 -3.704802 -15.580204 46.967995 -33.092006 0.307800 3.567100 9.861800 23.459421 27.945125 1.201790 3.610470 -0.581395 2.103752 7.936962 -25.441730 -0.809963 -0.449100 4.299600 -11.921200 26.313676 7.673942 -26.324606 -12.635233 -1.813538 -6.575904 23.792219 -22.291799 20.613642 5.185800 -9.678500 7.979200 -88.083291 6.409675 -20.790616 7.664485 -8.326054 -1.108815 1.326585 2.183717 56.971372 -7.125000 0.000000 0.000000 78.532784 -8.938868 3.888836 -10.849539 14.517826 -2.123524 1.270525 1.898833 22.967489 7.125000 0.000000 0.000000 
0.968196 18.358635 9.641287 -10.258201 2.632212 15.668285 -21.062719 -49.604014 23.163693 -3.842668 -2.371121 -3.653308 -15.423190 46.839332 -33.462896 0.352300 3.813400 10.552300 23.276548 27.923395 1.112641 3.633745 -0.574592 2.189409 7.819329 -24.859552 -2.164846 -0.130500 2.328800 -6.415200 26.099868 7.658232 -26.416797 -12.547323 -1.790981 -6.597889 23.325101 -22.259346 21.012283 5.030600 -9.648500 8.032400 -88.034075 6.331464 -21.164458 7.632916 -8.291481 -1.100812 1.335944 2.175690 57.375402 -7.125000 0.000000 0.000000 78.543631 -8.998010 3.718958 -10.868310 14.539071 -2.098785 1.232843 1.875645 24.464314 7.125000 0.000000 0.000000 
0.968934 18.360427 9.640549 -10.137968 2.590580 15.682189 -21.306357 -49.722989 23.331387 -3.849032 -2.367190 -3.639177 -15.359710 46.823174 -33.723982 0.372700 3.921000 10.854400 23.122623 27.932212 1.079956 3.639486 -0.587875 2.258196 7.759106 -24.603521 -2.617085 -0.034800 1.204000 -3.310300 25.919639 7.628529 -26.502812 -12.453508 -1.777926 -6.617435 22.977475 -22.203788 21.332177 4.921800 -9.611600 8.069400 -88.001852 6.344549 -21.129454 7.642698 -8.299237 -1.100752 1.326683 2.174882 57.367504 -7.125000 0.000000 0.000000 78.538798 -9.054314 3.610182 -10.871626 14.541454 -2.073210 1.200176 1.852068 25.951034 7.125000 0.000000 0.000000 
0.969145 18.361270 9.639179 -10.090928 2.537319 15.683400 -21.328981 -49.672948 23.292286 -3.850608 -2.363792 -3.623540 -15.328686 46.778615 -33.723024 0.379900 3.958200 10.959200 23.055905 27.960597 1.061739 3.636453 -0.610784 2.317554 7.733452 -24.518421 -2.638603 -0.003300 0.369400 -1.015100 25.852891 7.640014 -26.559175 -12.402864 -1.766299 -6.666800 22.565747 -22.138417 21.601420 4.803200 -9.580400 8.093400 -87.998613 6.330977 -21.270141 7.638636 -8.296124 -1.100972 1.331681 2.177846 57.562570 -7.125000 0.000000 0.000000 78.531684 -9.110463 3.516716 -10.863520 14.532302 -2.044525 1.161037 1.831442 27.541264 7.125000 0.000000 0.000000 
0.964824 18.366222 9.639179 -9.685903 2.335368 15.895323 -21.645101 -49.822566 23.192675 -3.855149 -2.322824 -3.545117 -15.198264 46.710212 -34.095754 0.413000 4.125500 11.429900 22.553421 28.158919 0.902592 3.637046 -0.615203 2.282428 7.814265 -24.709878 -2.570326 0.000000 0.027400 -0.075200 24.999075 7.658728 -27.212589 -12.012056 -1.641190 -6.472962 21.639886 -22.080253 22.122169 4.504400 -9.557300 8.110300 -87.892552 6.387612 -20.566591 7.686861 -8.311485 -1.088196 1.246262 2.144054 57.297971 -7.125000 0.000000 0.000000 78.520762 -9.117375 3.029965 -10.735374 14.363612 -1.978109 1.102522 1.813090 29.208275 7.125000 0.000000 0.000000 
0.956289 18.376971 9.643289 -8.986696 2.041896 16.346629 -22.088573 -50.198340 22.978622 -3.854480 -2.271727 -3.503457 -15.070378 46.734446 -34.699636 0.457800 4.340200 12.035800 21.700005 28.472152 0.579981 3.639048 -0.609130 2.198123 7.948823 -25.018865 -2.482588 0.000000 -0.044200 0.121400 23.221530 7.593125 -28.449801 -11.344719 -1.415303 -5.931474 21.715963 -22.258669 22.028954 4.460600 -9.637100 8.043900 -87.628834 6.550195 -18.676515 7.819189 -8.383425 -1.067561 1.047356 2.064102 56.216420 -7.125000 0.000000 0.000000 78.532482 -9.014495 2.139497 -10.537346 14.087612 -1.908286 1.045927 1.823292 29.314170 7.125000 0.000000 0.000000 
0.952917 18.381397 9.647820 -8.607116 1.880149 16.593640 -22.316113 -50.367944 22.869596 -3.852817 -2.256640 -3.520300 -15.031132 46.782873 -34.979372 0.475900 4.424200 12.273200 21.252926 28.641396 0.437368 3.641296 -0.594969 2.137518 8.000803 -25.119324 -2.482214 -0.001000 -0.207900 0.571300 22.109661 7.506871 -29.143594 -10.973191 -1.291111 -5.633712 21.733524 -22.361343 22.012024 4.424100 -9.680600 8.014900 -87.447470 6.632687 -17.808417 7.878322 -8.414144 -1.056208 0.954188 2.016920 55.780632 -7.125000 0.000000 0.000000 78.595796 -9.042884 2.076550 -10.420016 13.917086 -1.876673 1.066672 1.809195 29.070895 7.125000 0.000000 0.000000 
0.953654 18.381502 9.649401 -8.674575 1.884045 16.620298 -22.151927 -50.318963 22.751889 -3.849763 -2.262854 -3.543472 -15.075160 46.815244 -34.882041 0.464900 4.373500 12.130000 21.323795 28.741440 0.468022 3.642748 -0.588949 2.125387 8.009835 -25.142541 -2.559263 -0.001900 -0.282600 0.776500 22.164913 7.526463 -29.100585 -11.024590 -1.290926 -5.617176 21.714922 -22.370993 22.025396 4.411200 -9.681800 8.024900 -87.416991 6.584382 -17.894468 7.858495 -8.394617 -1.053767 0.966022 2.016994 55.849843 -7.125000 0.000000 0.000000 78.600113 -9.022107 2.051549 -10.416267 13.910113 -1.871451 1.057309 1.806190 29.020971 7.125000 0.000000 0.000000 
0.954392 18.381607 9.651403 -8.694175 1.856089 16.599039 -22.181905 -50.314735 22.798348 -3.851620 -2.271625 -3.556355 -15.083214 46.834093 -34.909947 0.469400 4.394200 12.188300 21.336351 28.789795 0.510690 3.642936 -0.584654 2.119478 8.012060 -25.144697 -2.579766 -0.002100 -0.296100 0.813600 22.330110 7.531662 -28.926189 -11.056836 -1.300870 -5.621075 21.761688 -22.368884 22.043256 4.415900 -9.672200 8.041600 -87.411296 6.517786 -17.995278 7.845715 -8.382771 -1.054627 0.979388 2.025361 55.884145 -7.125000 0.000000 0.000000 78.559499 -8.968543 2.074176 -10.417771 13.914163 -1.869687 1.049974 1.805515 29.005388 7.125000 0.000000 0.000000 
0.955446 18.382450 9.660254 -8.922057 1.988326 16.598937 -21.848383 -50.232959 22.659675 -3.844090 -2.284592 -3.596363 -15.127308 46.804721 -34.621305 0.458300 4.342800 12.043000 21.608982 28.715949 0.562058 3.646460 -0.558496 2.069648 8.001101 -25.142090 -2.606642 -0.001900 -0.283500 0.779000 22.706757 7.549643 -28.668273 -11.244873 -1.346006 -5.551956 21.765632 -22.368109 22.061182 4.409500 -9.663800 8.063100 -87.395803 6.448728 -18.176205 7.817086 -8.358832 -1.053183 0.987977 2.034778 56.038173 -7.125000 0.000000 0.000000 78.554895 -8.919388 2.149146 -10.493289 14.014748 -1.900782 1.041963 1.837836 28.647162 7.125000 0.000000 0.000000 
0.956816 18.383820 9.674796 -9.407459 2.296704 16.675349 -21.179854 -50.302210 22.447573 -3.830093 -2.290527 -3.647132 -15.225223 46.842688 -34.335902 0.436900 4.241200 11.756400 22.158443 28.544655 0.550870 3.651715 -0.519024 1.988622 7.979991 -25.146949 -2.648066 -0.000900 -0.190400 0.523000 23.351268 7.608807 -28.354876 -11.612628 -1.427787 -5.386634 21.749328 -22.366075 22.016948 4.403500 -9.658500 8.080800 -87.389591 6.377868 -18.288905 7.784680 -8.332611 -1.048343 0.986027 2.031705 56.153550 -7.125000 0.000000 0.000000 78.592270 -8.862945 2.195581 -10.638213 14.205357 -1.960960 1.022960 1.899929 27.994809 7.125000 0.000000 0.000000 
0.957764 18.384558 9.681857 -9.633714 2.439647 16.739258 -20.963189 -50.497724 22.485870 -3.828233 -2.291844 -3.669958 -15.238999 46.894941 -34.490941 0.437500 4.244100 11.764400 22.393220 28.444978 0.495619 3.653140 -0.505363 1.957116 7.969003 -25.148273 -2.642342 -0.000200 -0.081300 0.223300 23.651818 7.635969 -28.226262 -11.779742 -1.467639 -5.287123 21.773993 -22.353681 21.971573 4.411200 -9.649400 8.085400 -87.387013 6.363291 -18.228285 7.785449 -8.336815 -1.047195 0.974588 2.025487 56.132751 -7.125000 0.000000 0.000000 78.602426 -8.830164 2.172884 -10.701736 14.289245 -1.991766 1.019216 1.932147 27.700324 7.125000 0.000000 0.000000 
0.958396 18.385295 9.682910 -9.599976 2.410049 16.756028 -20.937733 -50.428135 22.408439 -3.827626 -2.300200 -3.689925 -15.234682 46.873182 -34.427774 0.426900 4.193300 11.621200 22.346201 28.450256 0.471323 3.652603 -0.512840 1.976057 7.968344 -25.137743 -2.657966 -0.000200 -0.095100 0.261300 23.600302 7.631728 -28.254823 -11.757113 -1.460117 -5.255154 21.852328 -22.351995 21.951755 4.432200 -9.644600 8.084800 -87.374822 6.397982 -18.086599 7.800362 -8.351303 -1.049478 0.956491 2.029808 56.035209 -7.125000 0.000000 0.000000 78.585543 -8.823037 2.065904 -10.675042 14.252659 -1.986652 1.030291 1.929573 27.784797 7.125000 0.000000 0.000000 
0.959028 18.385717 9.683648 -9.586864 2.395604 16.762728 -20.850158 -50.301303 22.256701 -3.823888 -2.300320 -3.687993 -15.251582 46.841800 -34.227057 0.416300 4.141700 11.475600 22.322908 28.456593 0.458844 3.652626 -0.517700 1.992099 7.962157 -25.110115 -2.704159 -0.000900 -0.197500 0.542600 23.604036 7.631422 -28.261461 -11.746177 -1.460151 -5.239080 21.871915 -22.354561 21.927583 4.436300 -9.645600 8.081400 -87.370489 6.414961 -18.129193 7.798494 -8.351574 -1.051213 0.961746 2.035440 56.074147 -7.125000 0.000000 0.000000 78.563901 -8.813956 1.951284 -10.645556 14.214379 -1.980979 1.041138 1.926868 27.882331 7.125000 0.000000 0.000000 
0.959766 18.385717 9.683648 -9.585495 2.397206 16.743249 -21.014535 -50.433249 22.450341 -3.827179 -2.291278 -3.665103 -15.287916 46.944447 -34.402562 0.416300 4.141700 11.475700 22.323640 28.452858 0.474434 3.652138 -0.519234 1.993897 7.961177 -25.110825 -2.682067 -0.001100 -0.216000 0.593500 23.648001 7.625025 -28.252147 -11.738939 -1.471882 -5.269072 21.709194 -22.332864 21.900851 4.384900 -9.643500 8.059900 -87.366446 6.427805 -18.226021 7.789101 -8.345717 -1.051486 0.979016 2.036262 56.129525 -7.125000 0.000000 0.000000 78.540297 -8.810447 1.924238 -10.625591 14.194579 -1.974563 1.039161 1.924731 27.928575 7.125000 0.000000 0.000000 
0.960398 18.385190 9.683226 -9.609041 2.412291 16.719502 -21.129914 -50.556954 22.633782 -3.829282 -2.288085 -3.661219 -15.335272 47.054756 -34.550690 0.403100 4.076000 11.290700 22.367820 28.450619 0.501355 3.651311 -0.519284 1.991714 7.965571 -25.134762 -2.631885 -0.000300 -0.107800 0.296000 23.656354 7.613020 -28.240250 -11.755720 -1.482675 -5.308974 21.861793 -22.364621 21.880197 4.425300 -9.651200 8.075900 -87.352845 6.433698 -18.376034 7.775370 -8.335475 -1.047880 0.985630 2.029302 56.271929 -7.125000 0.000000 0.000000 78.533819 -8.813094 1.898554 -10.619007 14.186276 -1.963939 1.021895 1.917297 27.967725 7.125000 0.000000 0.000000 
0.960714 18.385085 9.682489 -9.603841 2.416079 16.727387 -20.951180 -50.367845 22.388132 -3.823941 -2.290098 -3.664475 -15.319914 46.950599 -34.260131 0.394200 4.031200 11.164600 22.360516 28.449548 0.490195 3.650864 -0.520367 1.992549 7.967088 -25.141767 -2.609183 0.000000 -0.009000 0.024800 23.628459 7.614493 -28.281641 -11.748318 -1.481175 -5.305394 22.187994 -22.384617 21.759552 4.523100 -9.652500 8.074500 -87.359650 6.429336 -18.598730 7.764112 -8.325824 -1.043599 0.990479 2.019012 56.554722 -7.125000 0.000000 0.000000 78.527083 -8.824230 1.817404 -10.622990 14.190610 -1.960163 1.010151 1.914540 28.036070 7.125000 0.000000 0.000000 
